<svg width="728" height="843" viewBox="0 0 728 843" fill="none" xmlns="http://www.w3.org/2000/svg">
<g opacity="0.6" clip-path="url(#clip0_1_1812)">
<path d="M990.14 468.667C942.074 548.824 806.756 480.302 640.854 550.387C497.166 611.106 504.658 703.074 384.21 719.901C296.216 732.211 191.973 698.703 123.962 620.094C48.9624 533.423 52.3686 430.98 53.9935 405.979C61.1573 293.861 129.12 223.287 153.21 199.026C252.469 99.1205 382.267 90.4111 444.532 86.2023C678.432 70.4666 953.226 190.515 995.881 366.646C1001.49 389.701 1011.83 432.471 990.14 468.667Z" fill="url(#paint0_linear_1_1812)"/>
</g>
<defs>
<linearGradient id="paint0_linear_1_1812" x1="464.651" y1="853.211" x2="571.498" y2="117.264" gradientUnits="userSpaceOnUse">
<stop stop-color="#CFE9FF"/>
<stop offset="1" stop-color="#DEEEFE"/>
</linearGradient>
<clipPath id="clip0_1_1812">
<rect width="937.962" height="671.376" fill="white" transform="translate(920.165 843.005) rotate(-168.643)"/>
</clipPath>
</defs>
</svg>
